<svg width="541" height="204" viewBox="0 0 541 204" fill="none" xmlns="http://www.w3.org/2000/svg">
<path fill-rule="evenodd" clip-rule="evenodd" d="M195 161L195 43L198 43L198 161L195 161Z" fill="black"/>
<path d="M252.191 46.8086C250.482 46.8086 249.159 47.4531 248.222 48.7422C247.284 50.0215 246.815 51.8086 246.815 54.1035C246.815 58.8789 248.607 61.2666 252.191 61.2666C253.695 61.2666 255.517 60.8906 257.655 60.1387V63.9473C255.897 64.6797 253.935 65.0459 251.767 65.0459C248.651 65.0459 246.269 64.1035 244.618 62.2188C242.968 60.3242 242.143 57.6094 242.143 54.0742C242.143 51.8477 242.548 49.8994 243.358 48.2295C244.169 46.5498 245.331 45.2656 246.845 44.377C248.368 43.4785 250.15 43.0293 252.191 43.0293C254.271 43.0293 256.361 43.5322 258.461 44.5381L256.996 48.2295C256.195 47.8486 255.39 47.5166 254.579 47.2334C253.769 46.9502 252.973 46.8086 252.191 46.8086Z" fill="black"/>
<path d="M269.767 52.8438H271.231C272.667 52.8438 273.727 52.6045 274.41 52.126C275.094 51.6475 275.436 50.8955 275.436 49.8701C275.436 48.8545 275.084 48.1318 274.381 47.7021C273.688 47.2725 272.608 47.0576 271.144 47.0576H269.767V52.8438ZM269.767 56.5352V64.7529H265.226V43.3369H271.466C274.376 43.3369 276.529 43.8691 277.926 44.9336C279.322 45.9883 280.021 47.5947 280.021 49.7529C280.021 51.0127 279.674 52.1357 278.98 53.1221C278.287 54.0986 277.306 54.8652 276.036 55.4219C279.259 60.2363 281.358 63.3467 282.335 64.7529H277.296L272.184 56.5352H269.767Z" fill="black"/>
<path d="M294.695 52.1553L299.163 43.3369H304.056L296.951 56.418V64.7529H292.439V56.5645L285.335 43.3369H290.257L294.695 52.1553Z" fill="black"/>
<path d="M314.292 53.415H315.786C317.183 53.415 318.228 53.1416 318.921 52.5947C319.614 52.0381 319.961 51.2324 319.961 50.1777C319.961 49.1133 319.668 48.3271 319.082 47.8193C318.506 47.3115 317.598 47.0576 316.357 47.0576H314.292V53.415ZM324.546 50.0166C324.546 52.3213 323.823 54.084 322.378 55.3047C320.942 56.5254 318.896 57.1357 316.24 57.1357H314.292V64.7529H309.751V43.3369H316.592C319.189 43.3369 321.162 43.8984 322.51 45.0215C323.867 46.1348 324.546 47.7998 324.546 50.0166Z" fill="black"/>
<path d="M339.851 64.7529H335.31V47.1162H329.494V43.3369H345.666V47.1162H339.851V64.7529Z" fill="black"/>
<path d="M371.4 54.0156C371.4 57.5605 370.521 60.2852 368.764 62.1895C367.006 64.0938 364.486 65.0459 361.205 65.0459C357.924 65.0459 355.404 64.0938 353.646 62.1895C351.889 60.2852 351.01 57.5508 351.01 53.9863C351.01 50.4219 351.889 47.7021 353.646 45.8271C355.414 43.9424 357.943 43 361.234 43C364.525 43 367.04 43.9473 368.778 45.8418C370.526 47.7363 371.4 50.4609 371.4 54.0156ZM355.771 54.0156C355.771 56.4082 356.225 58.21 357.133 59.4209C358.041 60.6318 359.398 61.2373 361.205 61.2373C364.828 61.2373 366.64 58.8301 366.64 54.0156C366.64 49.1914 364.838 46.7793 361.234 46.7793C359.428 46.7793 358.065 47.3896 357.147 48.6104C356.229 49.8213 355.771 51.623 355.771 54.0156Z" fill="black"/>
<path d="M391.949 64.7529L390.396 59.6553H382.589L381.036 64.7529H376.144L383.702 43.249H389.254L396.842 64.7529H391.949ZM389.312 55.8467C387.877 51.2275 387.066 48.6152 386.881 48.0098C386.705 47.4043 386.578 46.9258 386.5 46.5742C386.178 47.8242 385.255 50.915 383.731 55.8467H389.312Z" fill="black"/>
<path d="M415.193 58.8057C415.193 60.7393 414.495 62.2627 413.099 63.376C411.712 64.4893 409.778 65.0459 407.298 65.0459C405.013 65.0459 402.991 64.6162 401.233 63.7568V59.5381C402.679 60.1826 403.899 60.6367 404.896 60.9004C405.901 61.1641 406.819 61.2959 407.649 61.2959C408.646 61.2959 409.407 61.1055 409.935 60.7246C410.472 60.3438 410.74 59.7773 410.74 59.0254C410.74 58.6055 410.623 58.2344 410.389 57.9121C410.154 57.5801 409.808 57.2627 409.349 56.96C408.899 56.6572 407.977 56.1738 406.58 55.5098C405.271 54.8945 404.29 54.3037 403.636 53.7373C402.981 53.1709 402.459 52.5117 402.068 51.7598C401.678 51.0078 401.482 50.1289 401.482 49.123C401.482 47.2285 402.122 45.7393 403.401 44.6553C404.69 43.5713 406.468 43.0293 408.733 43.0293C409.847 43.0293 410.906 43.1611 411.912 43.4248C412.928 43.6885 413.987 44.0596 415.091 44.5381L413.626 48.0684C412.483 47.5996 411.536 47.2725 410.784 47.0869C410.042 46.9014 409.31 46.8086 408.587 46.8086C407.728 46.8086 407.068 47.0088 406.609 47.4092C406.15 47.8096 405.921 48.332 405.921 48.9766C405.921 49.377 406.014 49.7285 406.199 50.0312C406.385 50.3242 406.678 50.6123 407.078 50.8955C407.488 51.1689 408.45 51.667 409.964 52.3896C411.966 53.3467 413.338 54.3086 414.08 55.2754C414.822 56.2324 415.193 57.4092 415.193 58.8057Z" fill="black"/>
<path d="M434.717 58.8057C434.717 60.7393 434.019 62.2627 432.622 63.376C431.235 64.4893 429.302 65.0459 426.821 65.0459C424.536 65.0459 422.515 64.6162 420.757 63.7568V59.5381C422.202 60.1826 423.423 60.6367 424.419 60.9004C425.425 61.1641 426.343 61.2959 427.173 61.2959C428.169 61.2959 428.931 61.1055 429.458 60.7246C429.995 60.3438 430.264 59.7773 430.264 59.0254C430.264 58.6055 430.146 58.2344 429.912 57.9121C429.678 57.5801 429.331 57.2627 428.872 56.96C428.423 56.6572 427.5 56.1738 426.104 55.5098C424.795 54.8945 423.813 54.3037 423.159 53.7373C422.505 53.1709 421.982 52.5117 421.592 51.7598C421.201 51.0078 421.006 50.1289 421.006 49.123C421.006 47.2285 421.646 45.7393 422.925 44.6553C424.214 43.5713 425.991 43.0293 428.257 43.0293C429.37 43.0293 430.43 43.1611 431.436 43.4248C432.451 43.6885 433.511 44.0596 434.614 44.5381L433.149 48.0684C432.007 47.5996 431.06 47.2725 430.308 47.0869C429.565 46.9014 428.833 46.8086 428.11 46.8086C427.251 46.8086 426.592 47.0088 426.133 47.4092C425.674 47.8096 425.444 48.332 425.444 48.9766C425.444 49.377 425.537 49.7285 425.723 50.0312C425.908 50.3242 426.201 50.6123 426.602 50.8955C427.012 51.1689 427.974 51.667 429.487 52.3896C431.489 53.3467 432.861 54.3086 433.604 55.2754C434.346 56.2324 434.717 57.4092 434.717 58.8057Z" fill="black"/>
<path d="M453.933 64.7529H441.599V43.3369H453.933V47.0576H446.14V51.7598H453.391V55.4805H446.14V61.0029H453.933V64.7529Z" fill="black"/>
<path d="M469.677 64.7529H465.136V47.1162H459.32V43.3369H475.492V47.1162H469.677V64.7529Z" fill="black"/>
<path d="M494.43 58.8057C494.43 60.7393 493.731 62.2627 492.335 63.376C490.948 64.4893 489.015 65.0459 486.534 65.0459C484.249 65.0459 482.228 64.6162 480.47 63.7568V59.5381C481.915 60.1826 483.136 60.6367 484.132 60.9004C485.138 61.1641 486.056 61.2959 486.886 61.2959C487.882 61.2959 488.644 61.1055 489.171 60.7246C489.708 60.3438 489.977 59.7773 489.977 59.0254C489.977 58.6055 489.859 58.2344 489.625 57.9121C489.391 57.5801 489.044 57.2627 488.585 56.96C488.136 56.6572 487.213 56.1738 485.816 55.5098C484.508 54.8945 483.526 54.3037 482.872 53.7373C482.218 53.1709 481.695 52.5117 481.305 51.7598C480.914 51.0078 480.719 50.1289 480.719 49.123C480.719 47.2285 481.358 45.7393 482.638 44.6553C483.927 43.5713 485.704 43.0293 487.97 43.0293C489.083 43.0293 490.143 43.1611 491.148 43.4248C492.164 43.6885 493.224 44.0596 494.327 44.5381L492.862 48.0684C491.72 47.5996 490.772 47.2725 490.021 47.0869C489.278 46.9014 488.546 46.8086 487.823 46.8086C486.964 46.8086 486.305 47.0088 485.846 47.4092C485.387 47.8096 485.157 48.332 485.157 48.9766C485.157 49.377 485.25 49.7285 485.436 50.0312C485.621 50.3242 485.914 50.6123 486.314 50.8955C486.725 51.1689 487.687 51.667 489.2 52.3896C491.202 53.3467 492.574 54.3086 493.316 55.2754C494.059 56.2324 494.43 57.4092 494.43 58.8057Z" fill="black"/>
<path d="M251.225 100.974H259.721V112.077C258.344 112.526 257.045 112.839 255.824 113.015C254.613 113.2 253.373 113.293 252.104 113.293C248.871 113.293 246.4 112.346 244.691 110.451C242.992 108.547 242.143 105.817 242.143 102.263C242.143 98.8057 243.129 96.1104 245.102 94.1768C247.084 92.2432 249.828 91.2764 253.334 91.2764C255.531 91.2764 257.65 91.7158 259.691 92.5947L258.183 96.2275C256.62 95.4463 254.994 95.0557 253.305 95.0557C251.342 95.0557 249.77 95.7148 248.588 97.0332C247.406 98.3516 246.815 100.124 246.815 102.351C246.815 104.675 247.289 106.452 248.236 107.683C249.193 108.903 250.58 109.514 252.396 109.514C253.344 109.514 254.306 109.416 255.282 109.221V104.753H251.225V100.974Z" fill="black"/>
<path d="M287.271 102.263C287.271 105.808 286.393 108.532 284.635 110.437C282.877 112.341 280.357 113.293 277.076 113.293C273.795 113.293 271.275 112.341 269.518 110.437C267.76 108.532 266.881 105.798 266.881 102.233C266.881 98.6689 267.76 95.9492 269.518 94.0742C271.285 92.1895 273.814 91.2471 277.105 91.2471C280.396 91.2471 282.911 92.1943 284.649 94.0889C286.397 95.9834 287.271 98.708 287.271 102.263ZM271.642 102.263C271.642 104.655 272.096 106.457 273.004 107.668C273.912 108.879 275.27 109.484 277.076 109.484C280.699 109.484 282.511 107.077 282.511 102.263C282.511 97.4385 280.709 95.0264 277.105 95.0264C275.299 95.0264 273.937 95.6367 273.019 96.8574C272.101 98.0684 271.642 99.8701 271.642 102.263Z" fill="black"/>
<path d="M306.927 91.584H311.512L304.231 113H299.28L292.015 91.584H296.6L300.628 104.328C300.853 105.08 301.082 105.959 301.316 106.965C301.561 107.961 301.712 108.654 301.771 109.045C301.878 108.146 302.244 106.574 302.869 104.328L306.927 91.584Z" fill="black"/>
<path d="M329.556 113H317.222V91.584H329.556V95.3047H321.763V100.007H329.014V103.728H321.763V109.25H329.556V113Z" fill="black"/>
<path d="M341.579 101.091H343.044C344.479 101.091 345.539 100.852 346.223 100.373C346.906 99.8945 347.248 99.1426 347.248 98.1172C347.248 97.1016 346.896 96.3789 346.193 95.9492C345.5 95.5195 344.421 95.3047 342.956 95.3047H341.579V101.091ZM341.579 104.782V113H337.038V91.584H343.278C346.188 91.584 348.342 92.1162 349.738 93.1807C351.135 94.2354 351.833 95.8418 351.833 98C351.833 99.2598 351.486 100.383 350.793 101.369C350.1 102.346 349.118 103.112 347.849 103.669C351.071 108.483 353.171 111.594 354.147 113H349.108L343.996 104.782H341.579Z" fill="black"/>
<path d="M378.842 113H373.07L363.754 96.7988H363.622C363.808 99.6602 363.9 101.701 363.9 102.922V113H359.843V91.584H365.57L374.872 107.624H374.975C374.828 104.841 374.755 102.873 374.755 101.721V91.584H378.842V113Z" fill="black"/>
<path d="M400.357 113L398.805 107.902H390.997L389.444 113H384.552L392.11 91.4961H397.662L405.25 113H400.357ZM397.721 104.094C396.285 99.4746 395.475 96.8623 395.289 96.2568C395.113 95.6514 394.986 95.1729 394.908 94.8213C394.586 96.0713 393.663 99.1621 392.14 104.094H397.721Z" fill="black"/>
<path d="M429.959 113H424.188L414.871 96.7988H414.739C414.925 99.6602 415.018 101.701 415.018 102.922V113H410.96V91.584H416.688L425.989 107.624H426.092C425.945 104.841 425.872 102.873 425.872 101.721V91.584H429.959V113Z" fill="black"/>
<path d="M447.461 95.0557C445.752 95.0557 444.429 95.7002 443.491 96.9893C442.554 98.2686 442.085 100.056 442.085 102.351C442.085 107.126 443.877 109.514 447.461 109.514C448.965 109.514 450.786 109.138 452.925 108.386V112.194C451.167 112.927 449.204 113.293 447.036 113.293C443.921 113.293 441.538 112.351 439.888 110.466C438.237 108.571 437.412 105.856 437.412 102.321C437.412 100.095 437.817 98.1465 438.628 96.4766C439.438 94.7969 440.601 93.5127 442.114 92.624C443.638 91.7256 445.42 91.2764 447.461 91.2764C449.541 91.2764 451.631 91.7793 453.73 92.7852L452.266 96.4766C451.465 96.0957 450.659 95.7637 449.849 95.4805C449.038 95.1973 448.242 95.0557 447.461 95.0557Z" fill="black"/>
<path d="M472.829 113H460.495V91.584H472.829V95.3047H465.036V100.007H472.287V103.728H465.036V109.25H472.829V113Z" fill="black"/>
<path d="M252.356 160.753H247.815V143.116H242V139.337H258.172V143.116H252.356V160.753Z" fill="black"/>
<path d="M277.578 160.753L276.025 155.655H268.218L266.665 160.753H261.772L269.331 139.249H274.883L282.471 160.753H277.578ZM274.941 151.847C273.506 147.228 272.695 144.615 272.51 144.01C272.334 143.404 272.207 142.926 272.129 142.574C271.807 143.824 270.884 146.915 269.36 151.847H274.941Z" fill="black"/>
<path d="M300.822 154.806C300.822 156.739 300.124 158.263 298.728 159.376C297.341 160.489 295.407 161.046 292.927 161.046C290.642 161.046 288.62 160.616 286.862 159.757V155.538C288.308 156.183 289.528 156.637 290.524 156.9C291.53 157.164 292.448 157.296 293.278 157.296C294.274 157.296 295.036 157.105 295.563 156.725C296.101 156.344 296.369 155.777 296.369 155.025C296.369 154.605 296.252 154.234 296.018 153.912C295.783 153.58 295.437 153.263 294.978 152.96C294.528 152.657 293.605 152.174 292.209 151.51C290.9 150.895 289.919 150.304 289.265 149.737C288.61 149.171 288.088 148.512 287.697 147.76C287.307 147.008 287.111 146.129 287.111 145.123C287.111 143.229 287.751 141.739 289.03 140.655C290.319 139.571 292.097 139.029 294.362 139.029C295.476 139.029 296.535 139.161 297.541 139.425C298.557 139.688 299.616 140.06 300.72 140.538L299.255 144.068C298.112 143.6 297.165 143.272 296.413 143.087C295.671 142.901 294.938 142.809 294.216 142.809C293.356 142.809 292.697 143.009 292.238 143.409C291.779 143.81 291.55 144.332 291.55 144.977C291.55 145.377 291.643 145.729 291.828 146.031C292.014 146.324 292.307 146.612 292.707 146.896C293.117 147.169 294.079 147.667 295.593 148.39C297.595 149.347 298.967 150.309 299.709 151.275C300.451 152.232 300.822 153.409 300.822 154.806Z" fill="black"/>
<path d="M324.931 160.753H319.774L314.164 151.729L312.245 153.106V160.753H307.704V139.337H312.245V149.137L314.032 146.617L319.833 139.337H324.872L317.401 148.814L324.931 160.753Z" fill="black"/>
<path d="M345.887 160.753H341.419V139.337H353.694V143.058H345.887V148.58H353.152V152.286H345.887V160.753Z" fill="black"/>
<path d="M380.322 150.016C380.322 153.561 379.443 156.285 377.686 158.189C375.928 160.094 373.408 161.046 370.127 161.046C366.846 161.046 364.326 160.094 362.568 158.189C360.811 156.285 359.932 153.551 359.932 149.986C359.932 146.422 360.811 143.702 362.568 141.827C364.336 139.942 366.865 139 370.156 139C373.447 139 375.962 139.947 377.7 141.842C379.448 143.736 380.322 146.461 380.322 150.016ZM364.692 150.016C364.692 152.408 365.146 154.21 366.055 155.421C366.963 156.632 368.32 157.237 370.127 157.237C373.75 157.237 375.562 154.83 375.562 150.016C375.562 145.191 373.76 142.779 370.156 142.779C368.35 142.779 366.987 143.39 366.069 144.61C365.151 145.821 364.692 147.623 364.692 150.016Z" fill="black"/>
<path d="M392.302 148.844H393.767C395.202 148.844 396.262 148.604 396.945 148.126C397.629 147.647 397.971 146.896 397.971 145.87C397.971 144.854 397.619 144.132 396.916 143.702C396.223 143.272 395.144 143.058 393.679 143.058H392.302V148.844ZM392.302 152.535V160.753H387.761V139.337H394.001C396.911 139.337 399.064 139.869 400.461 140.934C401.857 141.988 402.556 143.595 402.556 145.753C402.556 147.013 402.209 148.136 401.516 149.122C400.822 150.099 399.841 150.865 398.571 151.422C401.794 156.236 403.894 159.347 404.87 160.753H399.831L394.719 152.535H392.302Z" fill="black"/>
<path d="M419.662 142.809C417.953 142.809 416.63 143.453 415.692 144.742C414.755 146.021 414.286 147.809 414.286 150.104C414.286 154.879 416.078 157.267 419.662 157.267C421.166 157.267 422.987 156.891 425.126 156.139V159.947C423.368 160.68 421.405 161.046 419.237 161.046C416.122 161.046 413.739 160.104 412.089 158.219C410.438 156.324 409.613 153.609 409.613 150.074C409.613 147.848 410.019 145.899 410.829 144.229C411.64 142.55 412.802 141.266 414.315 140.377C415.839 139.479 417.621 139.029 419.662 139.029C421.742 139.029 423.832 139.532 425.932 140.538L424.467 144.229C423.666 143.849 422.86 143.517 422.05 143.233C421.239 142.95 420.443 142.809 419.662 142.809Z" fill="black"/>
<path d="M445.03 160.753H432.696V139.337H445.03V143.058H437.237V147.76H444.488V151.48H437.237V157.003H445.03V160.753Z" fill="black"/>
<path fill-rule="evenodd" clip-rule="evenodd" d="M538 3.04478H3V200.955H538V3.04478ZM0 0V204H541V0H0Z" fill="black"/>
<path d="M70.4473 51.7943C66.4596 51.7943 63.3721 53.2942 61.1846 56.2938C58.9971 59.2707 57.9033 63.4292 57.9033 68.7695C57.9033 79.8817 62.0846 85.4378 70.4473 85.4378C73.9564 85.4378 78.2061 84.5629 83.1963 82.8132V91.6757C79.0947 93.38 74.5146 94.2322 69.4561 94.2322C62.1872 94.2322 56.6273 92.0393 52.7764 87.6535C48.9255 83.2449 47 76.9275 47 68.7013C47 63.5201 47.9456 58.9866 49.8369 55.1007C51.7282 51.1921 54.4398 48.2039 57.9717 46.136C61.5264 44.0453 65.6849 43 70.4473 43C75.3008 43 80.1771 44.1703 85.0762 46.5109L81.6582 55.1007C79.7897 54.2145 77.9098 53.4419 76.0186 52.7829C74.1273 52.1238 72.2702 51.7943 70.4473 51.7943Z" fill="black"/>
<path d="M131.348 66.213H151.173V92.0507C147.96 93.096 144.929 93.8232 142.081 94.2322C139.255 94.664 136.361 94.8799 133.399 94.8799C125.857 94.8799 120.092 92.6756 116.104 88.2671C112.139 83.8358 110.157 77.4843 110.157 69.2126C110.157 61.1682 112.458 54.8963 117.061 50.3968C121.687 45.8974 128.09 43.6477 136.27 43.6477C141.397 43.6477 146.342 44.6703 151.104 46.7155L147.584 55.169C143.938 53.351 140.144 52.442 136.202 52.442C131.622 52.442 127.953 53.9759 125.196 57.0437C122.439 60.1115 121.06 64.236 121.06 69.4172C121.06 74.8256 122.165 78.9614 124.376 81.8247C126.609 84.6652 129.844 86.0855 134.083 86.0855C136.293 86.0855 138.538 85.8583 140.816 85.4038V75.0074H131.348V66.213Z" fill="black"/>
<path d="M71.165 161H60.5693V119.96H47V111.165H84.7344V119.96H71.165V161Z" fill="black"/>
<path d="M132.784 160.488H122.359V110.653H151.002V119.311H132.784V132.162H149.737V140.786H132.784V160.488Z" fill="black"/>
</svg>
